<?xml version="1.0" standalone="no"?>
<!DOCTYPE svg PUBLIC "-//W3C//DTD SVG 20010904//EN"
 "http://www.w3.org/TR/2001/REC-SVG-20010904/DTD/svg10.dtd">
<svg version="1.0" xmlns="http://www.w3.org/2000/svg"
 width="177.000000pt" height="177.000000pt" viewBox="0 0 177.000000 177.000000"
 preserveAspectRatio="xMidYMid meet">
<metadata>
Created by potrace 1.14, written by Peter Selinger 2001-2017
</metadata>
<g transform="translate(0.000000,177.000000) scale(0.100000,-0.100000)"
fill="#000000" stroke="none">
<path d="M90 1498 c-27 -10 -32 -41 -28 -158 2 -76 7 -103 18 -110 9 -6 143
-10 313 -10 l297 0 0 -50 c0 -27 -3 -51 -7 -51 -5 -1 -118 -2 -253 -3 l-245
-2 -52 -28 c-56 -31 -105 -90 -121 -148 -6 -21 -10 -112 -10 -203 1 -151 3
-169 24 -216 13 -27 29 -55 37 -62 51 -47 66 -59 78 -61 8 -2 22 -6 31 -10 9
-4 22 -5 28 -1 5 3 10 2 10 -3 0 -4 87 -8 193 -7 170 1 197 4 237 22 l45 20
17 -21 c14 -19 26 -21 131 -21 82 0 120 4 129 13 10 10 13 66 13 232 0 194 1
217 15 206 9 -8 40 -13 83 -12 37 1 67 -3 67 -7 0 -5 5 -5 12 -1 17 11 108 11
108 1 0 -5 5 -5 12 -1 16 10 228 11 228 1 0 -5 5 -5 12 -1 7 4 60 7 119 7 58
0 112 3 119 7 8 5 15 32 17 63 4 71 -7 80 -105 82 -42 1 -78 3 -80 4 -1 0 3
11 10 24 7 12 11 25 10 30 -1 4 3 7 8 7 6 0 10 6 10 14 0 8 3 16 8 18 4 2 14
17 23 33 47 91 75 141 86 153 13 14 15 22 17 77 3 52 -7 55 -193 55 -103 0
-172 -4 -176 -10 -4 -7 -12 -7 -25 0 -24 13 -330 13 -350 0 -19 -12 -24 -101
-7 -125 11 -14 28 -18 84 -18 l71 -1 -32 -58 c-17 -33 -38 -71 -46 -86 -9 -15
-35 -62 -59 -104 -23 -43 -44 -78 -45 -78 0 0 -2 93 -3 208 0 114 -3 214 -6
222 -11 40 -28 70 -37 70 -6 0 -9 4 -6 9 7 11 -60 63 -104 81 -28 12 -105 15
-373 15 -185 0 -346 -3 -357 -7z m1294 -254 c3 -8 10 -12 16 -9 5 3 10 3 10
-2 0 -4 29 -8 64 -7 l64 0 -21 -40 c-12 -23 -24 -43 -27 -46 -3 -3 -12 -18
-20 -35 -8 -16 -17 -32 -20 -35 -6 -6 -32 -63 -32 -70 0 -3 -6 -9 -14 -13 -8
-4 -14 -15 -14 -22 0 -8 -4 -15 -10 -15 -5 0 -10 3 -10 8 0 4 -38 7 -85 6 -64
0 -85 3 -85 13 0 7 3 13 8 13 4 0 13 15 21 33 8 17 17 34 20 37 6 5 21 33 64
115 12 22 27 46 34 53 7 7 13 18 13 23 0 15 17 10 24 -7z m-698 -500 l2 -80
-199 0 c-109 0 -199 3 -200 8 0 4 0 28 0 53 0 25 0 58 0 73 l1 28 198 0 197
-1 1 -81z"/>
</g>
</svg>
